{
    "asset" : {
        "generator" : "Khronos glTF Blender I/O v3.4.50",
        "version" : "2.0"
    },
    "scene" : 0,
    "scenes" : [
        {
            "name" : "Scene",
            "nodes" : [
                0
            ]
        },
        {
            "name" : "Scene.001"
        }
    ],
    "nodes" : [
        {
            "mesh" : 0,
            "name" : "Tea",
            "translation" : [
                0,
                -0.0509704053401947,
                0
            ]
        }
    ],
    "animations" : [
        {
            "channels" : [
                {
                    "sampler" : 0,
                    "target" : {
                        "node" : 0,
                        "path" : "translation"
                    }
                },
                {
                    "sampler" : 1,
                    "target" : {
                        "node" : 0,
                        "path" : "rotation"
                    }
                },
                {
                    "sampler" : 2,
                    "target" : {
                        "node" : 0,
                        "path" : "scale"
                    }
                }
            ],
            "name" : "TeaAction",
            "samplers" : [
                {
                    "input" : 12,
                    "interpolation" : "LINEAR",
                    "output" : 13
                },
                {
                    "input" : 12,
                    "interpolation" : "LINEAR",
                    "output" : 14
                },
                {
                    "input" : 12,
                    "interpolation" : "LINEAR",
                    "output" : 15
                }
            ]
        }
    ],
    "materials" : [
        {
            "doubleSided" : true,
            "name" : "Color - Blue",
            "pbrMetallicRoughness" : {
                "metallicFactor" : 0,
                "roughnessFactor" : 0.5
            }
        },
        {
            "doubleSided" : true,
            "name" : "Silver",
            "pbrMetallicRoughness" : {
                "baseColorFactor" : [
                    0.6847962737083435,
                    0.6847962737083435,
                    0.6847962737083435,
                    1
                ],
                "roughnessFactor" : 0.5
            }
        }
    ],
    "meshes" : [
        {
            "name" : "Sphere.002",
            "primitives" : [
                {
                    "attributes" : {
                        "POSITION" : 0,
                        "TEXCOORD_0" : 1,
                        "NORMAL" : 2
                    },
                    "indices" : 3,
                    "material" : 0
                },
                {
                    "attributes" : {
                        "POSITION" : 4,
                        "TEXCOORD_0" : 5,
                        "NORMAL" : 6
                    },
                    "indices" : 7,
                    "material" : 0
                },
                {
                    "attributes" : {
                        "POSITION" : 8,
                        "TEXCOORD_0" : 9,
                        "NORMAL" : 10
                    },
                    "indices" : 11,
                    "material" : 1
                }
            ]
        }
    ],
    "accessors" : [
        {
            "bufferView" : 0,
            "componentType" : 5126,
            "count" : 28200,
            "max" : [
                0.9125550389289856,
                -0.03675054386258125,
                0.6937645077705383
            ],
            "min" : [
                -0.6937645077705383,
                -0.8306707143783569,
                -0.6937644481658936
            ],
            "type" : "VEC3"
        },
        {
            "bufferView" : 1,
            "componentType" : 5126,
            "count" : 28200,
            "type" : "VEC2"
        },
        {
            "bufferView" : 2,
            "componentType" : 5126,
            "count" : 28200,
            "type" : "VEC3"
        },
        {
            "bufferView" : 3,
            "componentType" : 5123,
            "count" : 159744,
            "type" : "SCALAR"
        },
        {
            "bufferView" : 4,
            "componentType" : 5126,
            "count" : 10873,
            "max" : [
                1.0250099897384644,
                -0.7228270173072815,
                1.025010108947754
            ],
            "min" : [
                -1.0250097513198853,
                -0.8416001796722412,
                -1.0250098705291748
            ],
            "type" : "VEC3"
        },
        {
            "bufferView" : 5,
            "componentType" : 5126,
            "count" : 10873,
            "type" : "VEC2"
        },
        {
            "bufferView" : 6,
            "componentType" : 5126,
            "count" : 10873,
            "type" : "VEC3"
        },
        {
            "bufferView" : 7,
            "componentType" : 5123,
            "count" : 58368,
            "type" : "SCALAR"
        },
        {
            "bufferView" : 8,
            "componentType" : 5126,
            "count" : 3624,
            "max" : [
                0.35516464710235596,
                0.9810419082641602,
                0.11469882726669312
            ],
            "min" : [
                -0.23855361342430115,
                -0.019217969849705696,
                -0.035910990089178085
            ],
            "type" : "VEC3"
        },
        {
            "bufferView" : 9,
            "componentType" : 5126,
            "count" : 3624,
            "type" : "VEC2"
        },
        {
            "bufferView" : 10,
            "componentType" : 5126,
            "count" : 3624,
            "type" : "VEC3"
        },
        {
            "bufferView" : 11,
            "componentType" : 5123,
            "count" : 20436,
            "type" : "SCALAR"
        },
        {
            "bufferView" : 12,
            "componentType" : 5126,
            "count" : 3,
            "max" : [
                0.08333333333333333
            ],
            "min" : [
                0
            ],
            "type" : "SCALAR"
        },
        {
            "bufferView" : 13,
            "componentType" : 5126,
            "count" : 3,
            "type" : "VEC3"
        },
        {
            "bufferView" : 14,
            "componentType" : 5126,
            "count" : 3,
            "type" : "VEC4"
        },
        {
            "bufferView" : 15,
            "componentType" : 5126,
            "count" : 3,
            "type" : "VEC3"
        }
    ],
    "bufferViews" : [
        {
            "buffer" : 0,
            "byteLength" : 338400,
            "byteOffset" : 0,
            "target" : 34962
        },
        {
            "buffer" : 0,
            "byteLength" : 225600,
            "byteOffset" : 338400,
            "target" : 34962
        },
        {
            "buffer" : 0,
            "byteLength" : 338400,
            "byteOffset" : 564000,
            "target" : 34962
        },
        {
            "buffer" : 0,
            "byteLength" : 319488,
            "byteOffset" : 902400,
            "target" : 34963
        },
        {
            "buffer" : 0,
            "byteLength" : 130476,
            "byteOffset" : 1221888,
            "target" : 34962
        },
        {
            "buffer" : 0,
            "byteLength" : 86984,
            "byteOffset" : 1352364,
            "target" : 34962
        },
        {
            "buffer" : 0,
            "byteLength" : 130476,
            "byteOffset" : 1439348,
            "target" : 34962
        },
        {
            "buffer" : 0,
            "byteLength" : 116736,
            "byteOffset" : 1569824,
            "target" : 34963
        },
        {
            "buffer" : 0,
            "byteLength" : 43488,
            "byteOffset" : 1686560,
            "target" : 34962
        },
        {
            "buffer" : 0,
            "byteLength" : 28992,
            "byteOffset" : 1730048,
            "target" : 34962
        },
        {
            "buffer" : 0,
            "byteLength" : 43488,
            "byteOffset" : 1759040,
            "target" : 34962
        },
        {
            "buffer" : 0,
            "byteLength" : 40872,
            "byteOffset" : 1802528,
            "target" : 34963
        },
        {
            "buffer" : 0,
            "byteLength" : 12,
            "byteOffset" : 1843400
        },
        {
            "buffer" : 0,
            "byteLength" : 36,
            "byteOffset" : 1843412
        },
        {
            "buffer" : 0,
            "byteLength" : 48,
            "byteOffset" : 1843448
        },
        {
            "buffer" : 0,
            "byteLength" : 36,
            "byteOffset" : 1843496
        }
    ],
    "buffers" : [
        {
            "byteLength" : 1843532,
            "uri" : "data:application/octet-stream;base64,"
        }
    ]
}
