<svg width="96" height="70" viewBox="0 0 96 70" fill="none" xmlns="http://www.w3.org/2000/svg">
<path d="M79.7793 5.93104C90.1461 21.1732 95.2659 38.366 93.352 58.1589C93.3439 58.2426 93.3003 58.3195 93.2315 58.37C85.3809 64.1346 77.7747 67.633 70.2753 69.9531C70.2169 69.9708 70.1544 69.9698 70.0966 69.9503C70.0388 69.9307 69.9885 69.8936 69.9528 69.8441C68.2203 67.4334 66.646 64.8919 65.2668 62.223C65.1876 62.0658 65.2599 61.8765 65.4229 61.8145C67.9231 60.8725 70.3005 59.7434 72.5873 58.4067C72.7674 58.3011 72.7789 58.043 72.6125 57.919C72.1272 57.5588 71.6464 57.1801 71.1863 56.8015C71.1003 56.7315 70.9844 56.7177 70.8868 56.7648C56.0405 63.6205 39.7771 63.6205 24.7552 56.7648C24.6577 56.7211 24.5418 56.7361 24.458 56.8049C23.9991 57.1836 23.5172 57.5588 23.0364 57.919C22.87 58.043 22.8838 58.3011 23.0651 58.4067C25.3519 59.7182 27.7293 60.8725 30.2261 61.8191C30.3879 61.8811 30.4647 62.0658 30.3844 62.223C29.0351 64.8953 27.4608 67.4368 25.6961 69.8475C25.6192 69.9451 25.493 69.9898 25.3737 69.9531C17.9098 67.633 10.3036 64.1346 2.45301 58.37C2.3876 58.3195 2.34056 58.2392 2.33368 58.1554C0.734186 41.0349 3.99398 23.6998 15.8938 5.9276C15.9225 5.88055 15.9661 5.84384 16.0165 5.82204C21.8718 3.1348 28.1447 1.15781 34.701 0.0287627C34.8203 0.0104041 34.9396 0.0654798 35.0016 0.171042C35.8117 1.6053 36.7376 3.4446 37.3641 4.94771C44.275 3.89209 51.2937 3.89209 58.3491 4.94771C58.9756 3.47673 59.8694 1.6053 60.676 0.171042C60.7048 0.118674 60.7493 0.0767191 60.8033 0.0511679C60.8573 0.0256167 60.918 0.0177752 60.9767 0.0287627C67.5364 1.16126 73.8093 3.13824 79.6599 5.82204C79.7116 5.84384 79.754 5.88055 79.7793 5.93104V5.93104ZM40.8775 38.4831C40.9498 33.4218 37.2597 29.2338 32.6276 29.2338C28.0334 29.2338 24.3789 33.3851 24.3789 38.4831C24.3789 43.5799 28.1057 47.7312 32.6276 47.7312C37.223 47.7312 40.8775 43.5799 40.8775 38.4831V38.4831ZM71.3779 38.4831C71.4502 33.4218 67.7601 29.2338 63.1292 29.2338C58.5338 29.2338 54.8793 33.3851 54.8793 38.4831C54.8793 43.5799 58.6061 47.7312 63.1292 47.7312C67.7601 47.7312 71.3779 43.5799 71.3779 38.4831V38.4831Z" fill="#E2E8F0"/>
</svg>
