<svg width="431" height="431" viewBox="0 0 431 431" fill="none" xmlns="http://www.w3.org/2000/svg">
<path d="M85.6745 301.183C73.53 301.183 62.4894 291.246 62.4894 279.102C62.4894 266.957 72.4259 257.021 85.6745 257.021C98.9232 257.021 108.86 266.957 108.86 279.102C108.86 291.246 97.8191 301.183 85.6745 301.183ZM370.52 180.841C368.312 163.176 357.272 148.824 342.919 137.783L337.399 133.367L332.983 138.887C324.15 148.824 320.838 166.488 321.942 179.737C323.046 189.674 326.358 199.61 331.878 207.338C327.462 209.547 321.942 211.755 317.526 213.963C307.589 217.275 297.653 218.379 287.716 218.379H1.76649L0.662432 225.003C-1.54567 245.98 1.76649 268.061 10.5989 287.934L15.0151 295.663V296.767C41.5124 340.929 88.9867 360.802 140.877 360.802C240.242 360.802 321.942 317.744 360.584 225.003C385.977 226.107 411.37 219.483 423.515 195.194L426.827 189.674L421.307 186.361C406.954 177.529 387.081 176.425 370.52 180.841ZM228.097 163.176H185.039V206.234H228.097V163.176ZM228.097 109.078H185.039V152.136H228.097V109.078ZM228.097 53.875H185.039V96.9331H228.097V53.875ZM281.092 163.176H238.034V206.234H281.092V163.176ZM121.004 163.176H77.9462V206.234H121.004V163.176ZM175.103 163.176H132.045V206.234H175.103V163.176ZM68.0097 163.176H24.9516V206.234H68.0097V163.176ZM175.103 109.078H132.045V152.136H175.103V109.078ZM121.004 109.078H77.9462V152.136H121.004V109.078Z" fill="#0087C9"/>
</svg>
