<svg width="217" height="300" viewBox="0 0 217 300" fill="none" xmlns="http://www.w3.org/2000/svg">
<g clip-path="url(#clip0_84_435)">
<path d="M142.482 108.359L112.423 136.294L84.5215 80.0957L98.9354 47.7826C102.578 41.337 108.536 41.2518 112.18 47.7826L142.482 108.359Z" fill="#FFA000"/>
<path d="M112.435 136.282L0 240.664L84.5337 80.0957L112.435 136.282Z" fill="#F57F17"/>
<path d="M175.44 65.6357C180.825 60.5157 186.369 62.2426 187.77 69.5152L217 239.253L120.051 297.349C116.651 299.246 107.635 299.988 107.635 299.988C107.635 299.988 99.435 298.991 96.2915 297.264L0 240.664L175.44 65.6357Z" fill="#FFCA28"/>
<path d="M84.5337 80.0956L0 240.664L37.6734 5.97128C39.0868 -1.3013 43.2172 -2.04315 46.9456 4.40244L84.5337 80.0956Z" fill="#FFA000"/>
</g>
<defs>
<clipPath id="clip0_84_435">
<rect width="217" height="300" fill="white"/>
</clipPath>
</defs>
</svg>
