<svg width="76" height="76" viewBox="0 0 76 76" fill="none" xmlns="http://www.w3.org/2000/svg">
<g clip-path="url(#clip0_13_276)">
<path d="M37.4885 0.5C16.8605 0.5 0.133484 17.6917 0.133484 38.8994C0.133484 55.8656 10.8368 70.2593 25.6792 75.3368C27.546 75.6922 28.2315 74.5038 28.2315 73.4895C28.2315 72.574 28.1967 69.5488 28.1808 66.3403C17.7884 68.6631 15.5955 61.8096 15.5955 61.8096C13.8963 57.3711 11.4479 56.1912 11.4479 56.1912C8.05887 53.8078 11.7034 53.8566 11.7034 53.8566C15.4546 54.1276 17.4298 57.8138 17.4298 57.8138C20.7614 63.6843 26.1684 61.987 28.3001 61.0061C28.6352 58.524 29.6035 56.8302 30.6717 55.8713C22.3748 54.9001 13.6525 51.6075 13.6525 36.894C13.6525 32.7019 15.1118 29.2762 17.5016 26.5871C17.1137 25.6198 15.8351 21.7143 17.8634 16.4251C17.8634 16.4251 21.0002 15.393 28.1387 20.3612C31.1182 19.5101 34.3139 19.0837 37.4885 19.0692C40.6631 19.0837 43.8611 19.5101 46.8465 20.3612C53.9765 15.393 57.1089 16.4251 57.1089 16.4251C59.1421 21.7143 57.863 25.6198 57.4751 26.5871C59.8701 29.2762 61.3194 32.7016 61.3194 36.894C61.3194 51.6424 52.5808 54.8902 44.2628 55.8406C45.6025 57.0323 46.7964 59.3693 46.7964 62.9516C46.7964 68.0894 46.753 72.2246 46.753 73.4895C46.753 74.5113 47.4254 75.7088 49.3191 75.3317C64.1533 70.2484 74.8432 55.8599 74.8432 38.8994C74.8432 17.6917 58.1184 0.5 37.4885 0.5Z" fill="#E2E8F0"/>
<path d="M14.1242 55.201C14.0422 55.3916 13.7498 55.4488 13.4841 55.3181C13.2131 55.1928 13.0607 54.9326 13.1486 54.7411C13.2292 54.5447 13.5216 54.4899 13.792 54.6218C14.0636 54.7468 14.2183 55.0094 14.1242 55.201M15.9617 56.8862C15.7836 57.0561 15.4353 56.9772 15.1988 56.7089C14.9545 56.4411 14.9088 56.0834 15.0896 55.9108C15.2732 55.7412 15.611 55.8204 15.856 56.0885C16.1003 56.3592 16.1478 56.7149 15.9614 56.8866M17.2224 59.0426C16.9933 59.2061 16.6189 59.0528 16.3877 58.7113C16.1589 58.3701 16.1589 57.9605 16.3927 57.7964C16.6247 57.6322 16.9933 57.7798 17.2276 58.1186C17.4562 58.4658 17.4562 58.8754 17.2221 59.0429M19.354 61.5401C19.1492 61.772 18.7133 61.7099 18.3939 61.3931C18.0676 61.0835 17.9765 60.6441 18.1818 60.4119C18.389 60.1794 18.8275 60.2448 19.1492 60.5589C19.4735 60.8679 19.5726 61.3106 19.3543 61.5401M22.1091 62.3833C22.0191 62.6839 21.599 62.8206 21.176 62.6929C20.7535 62.5613 20.477 62.209 20.5622 61.9051C20.6501 61.6024 21.072 61.46 21.4982 61.5967C21.9201 61.7277 22.1973 62.0774 22.1094 62.3833M25.245 62.7408C25.2556 63.0576 24.8967 63.3202 24.4525 63.326C24.0058 63.3359 23.6445 63.0796 23.6398 62.7682C23.6398 62.4484 23.9905 62.1882 24.437 62.1806C24.8812 62.1716 25.245 62.4261 25.245 62.7408M28.3253 62.6194C28.3786 62.9284 28.0698 63.2459 27.6289 63.3302C27.1953 63.4115 26.7939 63.2209 26.7386 62.9146C26.6847 62.5978 26.9993 62.2806 27.432 62.1984C27.8738 62.1195 28.269 62.3053 28.3253 62.6194" fill="#E2E8F0"/>
</g>
<defs>
<clipPath id="clip0_13_276">
<rect width="75" height="75" fill="white" transform="translate(0.133484 0.5)"/>
</clipPath>
</defs>
</svg>
