<svg width="76" height="76" viewBox="0 0 76 76" fill="none" xmlns="http://www.w3.org/2000/svg">
<path d="M0.133484 9.21212C0.133484 6.68682 0.978103 4.60348 2.66727 2.96212C4.35643 1.32068 6.55243 0.5 9.25511 0.5C11.9096 0.5 14.0572 1.30803 15.6982 2.92424C17.3873 4.59091 18.2319 6.76258 18.2319 9.43939C18.2319 11.8636 17.4115 13.8838 15.7705 15.5C14.0814 17.1667 11.8613 18 9.11032 18H9.03792C6.38346 18 4.23582 17.1667 2.59487 15.5C0.953923 13.8333 0.133484 11.7373 0.133484 9.21212ZM1.0746 75.5V24.8939H17.146V75.5H1.0746ZM26.0505 75.5H42.1219V47.2424C42.1219 45.4747 42.315 44.1111 42.701 43.1515C43.3767 41.4343 44.4023 39.9823 45.7778 38.7955C47.1533 37.6086 48.8786 37.0152 50.9539 37.0152C56.3594 37.0152 59.0621 40.8283 59.0621 48.4545V75.5H75.1335V46.4848C75.1335 39.0101 73.4443 33.3409 70.0659 29.4773C66.6875 25.6136 62.2233 23.6818 56.6731 23.6818C50.4472 23.6818 45.5968 26.4848 42.1219 32.0909V32.2424H42.0495L42.1219 32.0909V24.8939H26.0505C26.147 26.5101 26.1953 31.5353 26.1953 39.9697C26.1953 48.404 26.147 60.2474 26.0505 75.5Z" fill="#E2E8F0"/>
</svg>
