<svg width="2501" height="709" viewBox="0 0 2501 709" fill="none" xmlns="http://www.w3.org/2000/svg">
<g clip-path="url(#clip0_84_440)">
<path d="M2300.56 252.188C2294.49 252.188 2288.58 253.443 2283.35 256.402L2117.88 351.958C2107.18 358.129 2100.67 369.78 2100.67 382.177V572.942C2100.67 585.329 2107.18 596.965 2117.88 603.151L2161.1 628.097C2182.09 638.444 2189.83 638.283 2199.39 638.283C2230.47 638.283 2248.22 619.421 2248.22 586.643V398.334C2248.22 395.673 2245.91 393.769 2243.3 393.769H2222.57C2219.92 393.769 2217.66 395.673 2217.66 398.334V586.643C2217.66 601.169 2202.52 615.783 2177.96 603.503L2132.99 577.155C2131.4 576.291 2130.18 574.763 2130.18 572.942V382.172C2130.18 380.366 2131.38 378.525 2132.99 377.607L2298.11 282.408C2298.85 281.972 2299.7 281.742 2300.56 281.742C2301.43 281.742 2302.28 281.972 2303.02 282.408L2468.14 377.612C2469.72 378.559 2470.96 380.312 2470.96 382.182V572.946C2470.96 574.768 2470.04 576.633 2468.49 577.512L2303.02 672.716C2301.61 673.56 2299.65 673.56 2298.11 672.716L2255.6 647.423C2254.95 647.072 2254.23 646.888 2253.49 646.888C2252.75 646.888 2252.03 647.072 2251.38 647.423C2239.65 654.073 2237.44 654.845 2226.44 658.663C2223.73 659.611 2219.61 661.08 2227.84 665.694L2283.35 698.36C2288.58 701.38 2294.52 702.957 2300.57 702.93C2306.61 702.968 2312.55 701.392 2317.78 698.365L2483.25 603.156C2493.96 596.931 2500.46 585.334 2500.46 572.946V382.177C2500.46 369.785 2493.96 358.154 2483.25 351.967L2317.78 256.412C2312.59 253.448 2306.65 252.193 2300.57 252.193L2300.56 252.188Z" fill="#83CD29"/>
<path d="M2344.83 388.5C2297.71 388.5 2269.65 408.554 2269.65 441.903C2269.65 478.074 2297.5 488.016 2342.72 492.488C2396.83 497.786 2401.04 505.73 2401.04 516.38C2401.04 534.851 2386.31 542.727 2351.51 542.727C2307.77 542.727 2298.16 531.809 2294.95 510.057C2294.57 507.723 2292.76 505.838 2290.38 505.838H2268.95C2266.31 505.838 2264.03 508.113 2264.03 510.76C2264.03 538.606 2279.18 571.535 2351.51 571.535C2403.87 571.535 2434.07 550.984 2434.07 514.973C2434.07 479.28 2409.67 469.696 2358.88 462.982C2307.56 456.19 2302.67 452.865 2302.67 440.848C2302.67 430.927 2306.82 417.655 2344.83 417.655C2378.78 417.655 2391.33 424.979 2396.47 447.875C2396.92 450.023 2398.82 451.737 2401.04 451.737H2422.47C2423.79 451.737 2425.07 450.926 2425.99 449.979C2426.88 448.968 2427.52 447.831 2427.39 446.468C2424.07 407.045 2397.78 388.5 2344.83 388.5V388.5Z" fill="#83CD29"/>
<path d="M1327.77 2.05427C1325.92 2.0555 1324.11 2.53847 1322.5 3.45562C1320.91 4.38955 1319.58 5.72318 1318.66 7.32512C1317.73 8.92706 1317.24 10.742 1317.23 12.5913V281.348C1317.23 283.985 1316.01 286.348 1313.72 287.671C1312.6 288.324 1311.33 288.667 1310.03 288.667C1308.74 288.667 1307.46 288.324 1306.34 287.671L1262.43 262.379C1259.23 260.525 1255.59 259.549 1251.89 259.549C1248.19 259.549 1244.55 260.525 1241.35 262.379L1066.04 363.554C1059.49 367.338 1055.51 374.609 1055.51 382.177V584.533C1055.51 592.092 1059.5 599.015 1066.04 602.8L1241.35 703.98C1244.55 705.838 1248.19 706.817 1251.89 706.817C1255.59 706.817 1259.23 705.838 1262.43 703.98L1437.73 602.8C1440.94 600.952 1443.61 598.29 1445.46 595.083C1447.31 591.876 1448.28 588.236 1448.28 584.533V80.0466C1448.27 76.2566 1447.26 72.5358 1445.35 69.264C1443.43 65.9923 1440.69 63.2867 1437.39 61.4237L1333.04 3.10406C1331.41 2.19099 1329.59 2.02986 1327.77 2.05427V2.05427ZM200.053 254.649C196.713 254.781 193.568 255.367 190.57 257.105L15.2597 358.286C12.0484 360.131 9.3822 362.792 7.53164 366C5.68107 369.208 4.712 372.849 4.72274 376.552L5.0743 648.126C5.0743 651.901 7.02252 655.411 10.3428 657.257C11.9346 658.213 13.7567 658.719 15.6137 658.719C17.4708 658.719 19.2929 658.213 20.8847 657.257L124.873 597.536C131.46 593.62 135.761 586.813 135.761 579.265V452.44C135.761 444.872 139.741 437.928 146.303 434.169L190.565 408.524C193.766 406.664 197.405 405.693 201.107 405.712C204.721 405.712 208.431 406.615 211.644 408.524L255.911 434.169C259.126 436.012 261.794 438.673 263.646 441.883C265.498 445.092 266.466 448.735 266.453 452.44V579.26C266.453 586.809 270.799 593.664 277.342 597.531L381.33 657.257C382.922 658.213 384.744 658.719 386.601 658.719C388.458 658.719 390.28 658.213 391.872 657.257C393.474 656.33 394.805 654.998 395.73 653.394C396.656 651.791 397.144 649.973 397.145 648.121L397.487 376.552C397.508 372.847 396.543 369.202 394.691 365.992C392.84 362.783 390.168 360.123 386.95 358.286L211.644 257.105C208.68 255.367 205.526 254.786 202.162 254.649H200.053ZM1775.35 257.105C1771.69 257.105 1768.1 258.033 1764.81 259.918L1589.51 361.098C1586.29 362.945 1583.63 365.606 1581.78 368.814C1579.93 372.022 1578.96 375.661 1578.96 379.365V581.721C1578.96 589.333 1583.25 596.227 1589.85 599.992L1763.76 699.063C1770.18 702.725 1778.02 703.004 1784.48 699.405L1889.88 640.739C1893.22 638.883 1895.48 635.416 1895.5 631.608C1895.52 629.753 1895.04 627.928 1894.11 626.321C1893.18 624.715 1891.84 623.385 1890.23 622.472L1713.87 521.292C1710.57 519.407 1708.25 515.594 1708.25 511.804V448.573C1708.25 444.789 1710.59 441.322 1713.87 439.437L1768.67 407.816C1770.27 406.889 1772.09 406.401 1773.94 406.401C1775.79 406.401 1777.61 406.889 1779.21 407.816L1834.01 439.437C1835.62 440.359 1836.95 441.69 1837.88 443.293C1838.8 444.897 1839.29 446.716 1839.29 448.568V498.455C1839.28 500.306 1839.77 502.126 1840.69 503.73C1841.62 505.333 1842.95 506.664 1844.56 507.586C1847.84 509.485 1851.82 509.49 1855.09 507.586L1960.14 446.468C1963.35 444.614 1966.01 441.95 1967.86 438.743C1969.71 435.536 1970.68 431.899 1970.68 428.197V379.369C1970.68 371.826 1966.68 364.887 1960.14 361.098L1785.89 259.918C1782.69 258.065 1779.05 257.096 1775.35 257.11V257.105ZM1251.18 408.173C1252.1 408.173 1253.18 408.397 1254 408.871L1314.07 443.651C1315.7 444.593 1316.89 446.336 1316.89 448.216V517.776C1316.89 519.666 1315.71 521.404 1314.07 522.346L1254 557.126C1253.19 557.584 1252.29 557.825 1251.36 557.825C1250.44 557.825 1249.53 557.584 1248.73 557.126L1188.65 522.346C1187.02 521.399 1185.84 519.666 1185.84 517.776V448.216C1185.84 446.332 1187.02 444.603 1188.65 443.651L1248.73 408.876C1249.47 408.417 1250.32 408.175 1251.19 408.178V408.173H1251.18Z" fill="white"/>
<path d="M726.673 256.05C723.021 256.05 719.407 256.978 716.136 258.863L540.83 359.692C534.273 363.466 530.288 370.751 530.288 378.31V580.666C530.288 588.234 534.278 595.148 540.83 598.937L716.136 700.113C719.337 701.973 722.973 702.952 726.675 702.952C730.377 702.952 734.014 701.973 737.215 700.113L912.52 598.937C915.73 597.089 918.394 594.426 920.244 591.218C922.095 588.01 923.065 584.37 923.057 580.666V378.31C923.057 370.742 919.073 363.466 912.52 359.692L737.215 258.863C734.01 257.012 730.373 256.042 726.673 256.05V256.05ZM1775 436.63C1774.3 436.63 1773.52 436.63 1772.89 436.981L1739.17 456.654C1738.54 457.003 1738.01 457.512 1737.64 458.129C1737.27 458.746 1737.07 459.45 1737.06 460.169V498.811C1737.06 500.267 1737.9 501.599 1739.17 502.327L1772.89 521.648C1774.16 522.381 1775.5 522.381 1776.75 521.648L1810.48 502.322C1811.11 501.971 1811.63 501.462 1812 500.847C1812.37 500.231 1812.57 499.53 1812.59 498.811V460.164C1812.57 459.446 1812.37 458.745 1812 458.129C1811.63 457.514 1811.11 457.005 1810.48 456.654L1776.75 436.976C1776.13 436.61 1775.7 436.634 1775 436.634V436.63Z" fill="#83CD29"/>
</g>
<defs>
<clipPath id="clip0_84_440">
<rect width="2500" height="708" fill="white" transform="translate(0.53833 0.184204)"/>
</clipPath>
</defs>
</svg>
