<svg width="258" height="180" viewBox="0 0 258 180" fill="none" xmlns="http://www.w3.org/2000/svg">
<g clip-path="url(#clip0_84_411)">
<path d="M107.386 19.7322C115.698 11.1028 127.271 5.75108 140.07 5.75108C157.083 5.75108 171.928 15.2035 179.832 29.2359C186.702 26.1777 194.306 24.4767 202.306 24.4767C232.993 24.4767 257.871 49.4797 257.871 80.3208C257.871 111.166 232.993 136.169 202.306 136.169C198.561 136.169 194.9 135.795 191.361 135.082C184.4 147.454 171.134 155.812 155.909 155.812C149.535 155.812 143.506 154.346 138.138 151.737C131.082 168.275 114.641 179.872 95.4788 179.872C75.5239 179.872 58.5174 167.291 51.9894 149.649C49.1366 150.252 46.181 150.567 43.1483 150.567C19.3898 150.567 0.128906 131.179 0.128906 107.259C0.128906 91.2292 8.78272 77.2334 21.6404 69.7454C18.9933 63.6766 17.521 56.9787 17.521 49.9369C17.521 22.4282 39.9357 0.128621 67.5824 0.128621C83.8143 0.128621 98.2398 7.81789 107.386 19.7322Z" fill="#00A1E0"/>
<path d="M37.4603 93.3387C37.2988 93.7594 37.5191 93.8472 37.5705 93.9203C38.0551 94.2715 38.5471 94.5239 39.0428 94.8056C41.6716 96.1956 44.1536 96.6017 46.7493 96.6017C52.0364 96.6017 55.3187 93.7996 55.3187 89.2892V89.2014C55.3187 85.0312 51.6141 83.5168 48.1372 82.423L47.6856 82.2767C45.0641 81.428 42.8024 80.6964 42.8024 78.9771V78.8856C42.8024 77.4151 44.1242 76.3323 46.1729 76.3323C48.4493 76.3323 51.1515 77.0859 52.8918 78.0443C52.8918 78.0443 53.4022 78.3735 53.5894 77.8797C53.6922 77.6163 54.5734 75.2532 54.6652 74.9971C54.7643 74.7191 54.5881 74.5143 54.4082 74.4045C52.4219 73.201 49.6756 72.3779 46.8338 72.3779L46.3051 72.3816C41.466 72.3816 38.0882 75.2934 38.0882 79.4673V79.5551C38.0882 83.9557 41.8148 85.3824 45.3064 86.3774L45.8682 86.5493C48.4125 87.3285 50.6045 87.9979 50.6045 89.783V89.8708C50.6045 91.5023 49.1799 92.7168 46.8815 92.7168C45.9893 92.7168 43.1439 92.6985 40.0708 90.7634C39.7 90.5476 39.4834 90.3903 39.197 90.2184C39.0465 90.1232 38.6683 89.9586 38.5031 90.4561L37.4603 93.3387Z" fill="white"/>
<path d="M114.86 93.3387C114.698 93.7594 114.919 93.8472 114.97 93.9203C115.455 94.2715 115.947 94.5239 116.442 94.8056C119.071 96.1956 121.553 96.6017 124.149 96.6017C129.436 96.6017 132.718 93.7996 132.718 89.2892V89.2014C132.718 85.0312 129.014 83.5168 125.537 82.423L125.085 82.2767C122.464 81.428 120.202 80.6964 120.202 78.9771V78.8856C120.202 77.4151 121.524 76.3323 123.573 76.3323C125.849 76.3323 128.551 77.0859 130.291 78.0443C130.291 78.0443 130.802 78.3735 130.989 77.8797C131.092 77.6163 131.973 75.2532 132.065 74.9971C132.164 74.7191 131.988 74.5143 131.808 74.4045C129.822 73.201 127.075 72.3779 124.233 72.3779L123.705 72.3816C118.866 72.3816 115.488 75.2934 115.488 79.4673V79.5551C115.488 83.9557 119.214 85.3824 122.706 86.3774L123.268 86.5493C125.812 87.3285 128.008 87.9979 128.008 89.783V89.8708C128.008 91.5023 126.58 92.7168 124.281 92.7168C123.389 92.7168 120.544 92.6985 117.47 90.7634C117.1 90.5476 116.879 90.3976 116.6 90.2184C116.505 90.1562 116.057 89.9842 115.903 90.4561L114.86 93.3387Z" fill="white"/>
<path d="M167.699 84.5037C167.699 87.0534 167.221 89.0617 166.281 90.481C165.352 91.8857 163.946 92.5698 161.986 92.5698C160.021 92.5698 158.623 91.8894 157.708 90.481C156.783 89.0654 156.313 87.0534 156.313 84.5037C156.313 81.9577 156.783 79.9531 157.708 78.5484C158.623 77.1583 160.021 76.4816 161.986 76.4816C163.946 76.4816 165.352 77.1583 166.285 78.5484C167.221 79.9531 167.699 81.9577 167.699 84.5037ZM172.112 79.7775C171.679 78.3179 171.003 77.0303 170.103 75.9585C169.204 74.883 168.066 74.0197 166.715 73.3905C165.367 72.765 163.774 72.4467 161.986 72.4467C160.194 72.4467 158.601 72.765 157.253 73.3905C155.902 74.0197 154.764 74.883 153.861 75.9585C152.965 77.034 152.289 78.3216 151.852 79.7775C151.423 81.2298 151.206 82.8174 151.206 84.5037C151.206 86.1901 151.423 87.7814 151.852 89.23C152.289 90.6859 152.961 91.9735 153.864 93.049C154.764 94.1245 155.906 94.9841 157.253 95.595C158.604 96.2059 160.194 96.5168 161.986 96.5168C163.774 96.5168 165.364 96.2059 166.715 95.595C168.062 94.9841 169.204 94.1245 170.103 93.049C171.003 91.9772 171.679 90.6895 172.112 89.23C172.545 87.7777 172.762 86.1865 172.762 84.5037C172.762 82.821 172.545 81.2298 172.112 79.7775Z" fill="white"/>
<path fill-rule="evenodd" clip-rule="evenodd" d="M208.352 91.889C208.206 91.461 207.791 91.622 207.791 91.622C207.148 91.8671 206.465 92.0939 205.738 92.2073C205 92.3207 204.189 92.3792 203.319 92.3792C201.182 92.3792 199.486 91.7463 198.27 90.4953C197.051 89.2442 196.369 87.2213 196.376 84.4851C196.383 81.9939 196.985 80.121 198.069 78.6943C199.144 77.275 200.782 76.5471 202.966 76.5471C204.787 76.5471 206.175 76.7556 207.629 77.2128C207.629 77.2128 207.978 77.3628 208.143 76.9092C208.529 75.8411 208.815 75.0765 209.226 73.9023C209.344 73.5694 209.057 73.4267 208.955 73.3865C208.382 73.1633 207.031 72.8012 206.01 72.6476C205.055 72.5012 203.939 72.4244 202.698 72.4244C200.844 72.4244 199.192 72.739 197.778 73.3682C196.369 73.9937 195.172 74.857 194.224 75.9325C193.277 77.008 192.558 78.2956 192.077 79.7515C191.599 81.2038 191.357 82.7987 191.357 84.4851C191.357 88.1322 192.345 91.0806 194.294 93.2388C196.247 95.4044 199.181 96.5055 203.007 96.5055C205.268 96.5055 207.589 96.0482 209.256 95.3934C209.256 95.3934 209.575 95.2398 209.436 94.8703L208.352 91.889Z" fill="white"/>
<path fill-rule="evenodd" clip-rule="evenodd" d="M216.074 82.0612C216.283 80.6455 216.676 79.4676 217.282 78.5495C218.196 77.1557 219.592 76.3912 221.552 76.3912C223.513 76.3912 224.809 77.1594 225.738 78.5495C226.355 79.4676 226.623 80.6968 226.729 82.0612H216.074ZM230.933 78.9482C230.558 77.5398 229.63 76.1169 229.02 75.4657C228.058 74.4341 227.118 73.7135 226.186 73.3111C224.967 72.7917 223.505 72.4478 221.905 72.4478C220.039 72.4478 218.347 72.7587 216.974 73.4026C215.597 74.0464 214.44 74.9243 213.533 76.0181C212.627 77.1082 211.944 78.4068 211.51 79.881C211.074 81.3479 210.853 82.9465 210.853 84.6328C210.853 86.3485 211.081 87.9471 211.533 89.3847C211.988 90.8333 212.715 92.1099 213.699 93.1671C214.679 94.2316 215.942 95.0657 217.455 95.6473C218.956 96.2253 220.781 96.5252 222.878 96.5216C227.192 96.5069 229.464 95.5485 230.401 95.0327C230.566 94.9413 230.724 94.7803 230.525 94.3194L229.549 91.5942C229.402 91.1881 228.987 91.3381 228.987 91.3381C227.919 91.7332 226.399 92.4428 222.856 92.4355C220.539 92.4319 218.821 91.7514 217.745 90.687C216.64 89.5968 216.1 87.9946 216.004 85.7339L230.944 85.7486C230.944 85.7486 231.337 85.7412 231.377 85.3608C231.392 85.1998 231.891 82.3027 230.933 78.9482" fill="white"/>
<path fill-rule="evenodd" clip-rule="evenodd" d="M96.4304 82.0612C96.6433 80.6455 97.0325 79.4676 97.6383 78.5495C98.5525 77.1557 99.9477 76.3912 101.908 76.3912C103.869 76.3912 105.165 77.1594 106.098 78.5495C106.711 79.4676 106.979 80.6968 107.085 82.0612H96.4304ZM111.285 78.9482C110.911 77.5398 109.986 76.1169 109.376 75.4657C108.414 74.4341 107.474 73.7135 106.542 73.3111C105.323 72.7917 103.862 72.4478 102.261 72.4478C100.399 72.4478 98.7031 72.7587 97.3299 73.4026C95.9531 74.0464 94.7966 74.9243 93.8897 76.0181C92.9828 77.1082 92.2999 78.4068 91.8667 79.881C91.4334 81.3479 91.2095 82.9465 91.2095 84.6328C91.2095 86.3485 91.4371 87.9471 91.8887 89.3847C92.344 90.8333 93.0709 92.1099 94.0549 93.1671C95.0352 94.2316 96.2982 95.0657 97.8109 95.6473C99.3126 96.2253 101.137 96.5252 103.234 96.5216C107.548 96.5069 109.821 95.5485 110.757 95.0327C110.922 94.9413 111.08 94.7803 110.882 94.3194L109.909 91.5942C109.758 91.1881 109.343 91.3381 109.343 91.3381C108.275 91.7332 106.758 92.4428 103.208 92.4355C100.895 92.4319 99.1767 91.7514 98.101 90.687C96.9958 89.5968 96.4561 87.9946 96.3606 85.7339L111.3 85.7486C111.3 85.7486 111.693 85.7412 111.733 85.3608C111.748 85.1998 112.247 82.3027 111.285 78.9482" fill="white"/>
<path d="M64.1388 91.8074C63.5551 91.3429 63.4743 91.2258 63.276 90.9259C62.9823 90.4686 62.8318 89.8175 62.8318 88.9907C62.8318 87.6811 63.265 86.741 64.1645 86.1082C64.1535 86.1118 65.4496 84.9925 68.497 85.0327C70.6375 85.062 72.5503 85.3766 72.5503 85.3766V92.144H72.554C72.554 92.144 70.6558 92.55 68.519 92.6781C65.479 92.861 64.1278 91.8038 64.1388 91.8074ZM70.0831 81.349C69.4773 81.3051 68.6915 81.2795 67.7516 81.2795C66.4703 81.2795 65.233 81.4405 64.0728 81.7514C62.9052 82.0623 61.8551 82.5489 60.9519 83.1927C60.0451 83.8402 59.3144 84.6669 58.7857 85.6473C58.257 86.6276 57.989 87.7836 57.989 89.0785C57.989 90.3954 58.2166 91.5404 58.6719 92.4769C59.1272 93.417 59.7844 94.1998 60.6215 94.8034C61.4513 95.407 62.4756 95.8496 63.6652 96.1167C64.8364 96.3837 66.1655 96.519 67.6195 96.519C69.1505 96.519 70.6779 96.3947 72.1575 96.1423C73.6224 95.8935 75.4215 95.5314 75.9208 95.418C76.4165 95.3009 76.9672 95.1509 76.9672 95.1509C77.338 95.0595 77.3086 94.6644 77.3086 94.6644L77.3013 81.0527C77.3013 78.0677 76.5009 75.8546 74.9258 74.4828C73.3581 73.1147 71.0487 72.4233 68.0637 72.4233C66.9439 72.4233 65.1412 72.577 64.0617 72.7928C64.0617 72.7928 60.7977 73.422 59.454 74.4682C59.454 74.4682 59.1602 74.6511 59.3218 75.0608L60.3792 77.8921C60.5114 78.258 60.8675 78.1336 60.8675 78.1336C60.8675 78.1336 60.9813 78.0897 61.1135 78.0129C63.9883 76.4545 67.6231 76.5021 67.6231 76.5021C69.2386 76.5021 70.4796 76.824 71.3167 77.4642C72.1318 78.086 72.5467 79.0262 72.5467 81.0088V81.638C71.2616 81.4551 70.0831 81.349 70.0831 81.349Z" fill="white"/>
<path fill-rule="evenodd" clip-rule="evenodd" d="M190.576 73.6795C190.69 73.3429 190.452 73.182 190.352 73.1454C190.099 73.0466 188.829 72.7796 187.848 72.7174C185.972 72.604 184.93 72.9186 183.997 73.3356C183.072 73.7526 182.044 74.4257 181.471 75.1903V73.3795C181.471 73.1271 181.291 72.9259 181.041 72.9259H177.212C176.962 72.9259 176.782 73.1271 176.782 73.3795V95.5803C176.782 95.8291 176.988 96.0339 177.238 96.0339H181.163C181.412 96.0339 181.614 95.8291 181.614 95.5803V84.4891C181.614 83.0002 181.779 81.5151 182.11 80.5822C182.433 79.6604 182.874 78.9215 183.417 78.3911C183.964 77.8643 184.584 77.4948 185.264 77.2863C185.958 77.0742 186.725 77.0047 187.268 77.0047C188.05 77.0047 188.91 77.2058 188.91 77.2058C189.196 77.2388 189.357 77.0632 189.453 76.8035C189.71 76.1231 190.437 74.0855 190.576 73.6795Z" fill="white"/>
<path fill-rule="evenodd" clip-rule="evenodd" d="M153.735 63.3901C153.258 63.2438 152.825 63.145 152.26 63.0389C151.687 62.9365 151.004 62.8853 150.229 62.8853C147.527 62.8853 145.397 63.6462 143.903 65.146C142.416 66.6385 141.406 68.9101 140.9 71.8988L140.716 72.9047H137.324C137.324 72.9047 136.912 72.8901 136.824 73.3364L136.27 76.4348C136.23 76.7274 136.358 76.914 136.755 76.914H140.055L136.707 95.5409C136.446 97.0407 136.145 98.2735 135.811 99.2099C135.484 100.132 135.165 100.823 134.768 101.328C134.386 101.811 134.027 102.169 133.402 102.378C132.888 102.55 132.294 102.63 131.644 102.63C131.284 102.63 130.803 102.572 130.447 102.499C130.094 102.429 129.907 102.352 129.639 102.239C129.639 102.239 129.254 102.092 129.099 102.477C128.978 102.795 128.097 105.206 127.991 105.502C127.888 105.798 128.035 106.029 128.222 106.098C128.663 106.252 128.989 106.354 129.588 106.497C130.418 106.691 131.119 106.702 131.776 106.702C133.149 106.702 134.405 106.508 135.444 106.135C136.487 105.758 137.397 105.103 138.205 104.218C139.075 103.259 139.622 102.257 140.143 100.885C140.661 99.5318 141.105 97.8491 141.458 95.8884L144.825 76.914H149.745C149.745 76.914 150.159 76.9286 150.244 76.4787L150.802 73.384C150.839 73.0877 150.714 72.9047 150.314 72.9047H145.537C145.563 72.7987 145.779 71.1233 146.326 69.5466C146.561 68.8772 147.002 68.3322 147.373 67.959C147.74 67.5932 148.162 67.3335 148.625 67.1835C149.098 67.0299 149.638 66.9567 150.229 66.9567C150.677 66.9567 151.121 67.0079 151.455 67.0774C151.918 67.1762 152.098 67.2274 152.219 67.264C152.707 67.4103 152.774 67.2677 152.869 67.0335L154.011 63.9096C154.128 63.573 153.838 63.4303 153.735 63.3901Z" fill="white"/>
<path fill-rule="evenodd" clip-rule="evenodd" d="M86.996 95.5816C86.996 95.8303 86.8161 96.0315 86.5664 96.0315H82.6049C82.3552 96.0315 82.179 95.8303 82.179 95.5816V63.8149C82.179 63.5661 82.3552 63.3649 82.6049 63.3649H86.5664C86.8161 63.3649 86.996 63.5661 86.996 63.8149V95.5816Z" fill="white"/>
</g>
<defs>
<clipPath id="clip0_84_411">
<rect width="258" height="180" fill="white"/>
</clipPath>
</defs>
</svg>
