<svg width="228" height="260" viewBox="0 0 228 260" fill="none" xmlns="http://www.w3.org/2000/svg">
<g clip-path="url(#clip0_84_446)">
<path d="M199.688 51.0563C199.865 52.3571 227.987 242.064 227.987 242.064L147.878 259.356L0.032959 231.716C0.032959 231.716 19.0064 85.3065 19.7249 80.145C20.6766 73.3274 20.9056 73.0988 28.1568 70.8297C29.3355 70.4598 38.565 67.6048 51.5555 63.5882C56.5639 42.3956 72.5365 0.69397 105.969 0.69397C110.336 0.69397 115.392 3.0337 119.473 8.41964C119.882 8.39679 120.29 8.38016 120.685 8.38016C135.038 8.38016 143.195 20.5775 147.818 33.8491C152.539 32.3925 155.392 31.5135 155.563 31.4637C156.714 31.125 159.682 30.6637 161.202 32.1806C162.72 33.6974 176.558 47.4054 176.558 47.4054C176.558 47.4054 196.483 48.8786 197.425 48.9576C198.368 49.0366 199.509 49.7555 199.688 51.0563ZM139.646 36.3717C136.477 26.7094 131.552 18.3147 124.157 17.3879C125.998 22.6533 127.145 29.2943 127.145 37.5436C127.145 38.4891 127.141 39.3556 127.137 40.2345C131.712 38.8216 135.933 37.5187 139.646 36.3717ZM114.984 19.0232C106.831 22.5141 97.5054 31.767 92.5304 50.9254C101.391 48.1867 110.231 45.4563 118.368 42.9421C118.372 42.4704 118.376 42.0049 118.376 41.4958C118.376 31.5406 117.039 24.164 114.984 19.0232ZM105.05 9.64145C81.0372 9.64145 67.5469 41.101 61.8659 60.4007C68.2716 58.4204 75.2 56.2802 82.2887 54.09C87.1388 28.7873 98.6237 16.1162 109.338 11.0856C107.947 10.1298 106.493 9.64145 105.05 9.64145ZM120.685 93.1236C120.685 93.1236 114.009 89.2608 100.494 89.2608C65.4186 89.2608 48.0424 112.637 48.0424 136.793C48.0424 165.493 76.741 166.272 76.741 183.739C76.741 187.962 73.7485 193.74 66.3932 193.74C55.1353 193.74 41.795 182.312 41.795 182.312L34.9998 204.714C34.9998 204.714 47.9778 220.475 73.357 220.475C94.5066 220.475 110.192 204.585 110.192 179.91C110.192 148.546 75.2104 143.415 75.2104 130.025C75.2104 127.571 75.9934 117.832 91.5454 117.832C102.153 117.832 110.808 122.441 110.808 122.441L120.685 93.1236Z" fill="white"/>
</g>
<defs>
<clipPath id="clip0_84_446">
<rect width="228" height="260" fill="white"/>
</clipPath>
</defs>
</svg>
