<svg width="48" height="48" viewBox="0 0 48 48" fill="none" xmlns="http://www.w3.org/2000/svg">
<path fill-rule="evenodd" clip-rule="evenodd" d="M2 2V46H46V2H2ZM35.4508 23V23.0006C35.8679 23.002 36.3419 23.0239 36.6985 23.0635C38.1504 23.2241 39.2811 23.8648 40.2431 25.0717C40.7221 25.6728 40.886 25.9359 40.8511 26.0484C40.8286 26.121 40.4999 26.3618 39.4549 27.0713C38.4284 27.7684 38.0976 27.9771 38.0209 27.9771C37.943 27.9771 37.7808 27.8064 37.547 27.4785C37.0966 26.8473 36.6368 26.5591 35.9259 26.4631C35.1615 26.3595 34.4758 26.606 34.14 27.1052C33.853 27.5317 33.8096 28.2181 34.0377 28.7168C34.3021 29.2945 34.7805 29.6138 36.6141 30.4362C38.7288 31.3847 39.8005 32.0339 40.581 32.8395C41.4215 33.7071 41.8473 34.7089 41.9781 36.1258C42.042 36.8164 41.964 37.635 41.7707 38.3005C41.2969 39.932 40.0182 41.1266 38.1438 41.6888C37.6257 41.8442 37.1436 41.937 36.6667 41.9727C35.9388 42.0275 34.8967 41.9973 34.2695 41.9039C32.6827 41.6675 30.8914 40.7231 29.9982 39.6521C29.5598 39.1265 29 38.2613 29 38.1091C29 38.0357 29.0356 37.994 29.1766 37.9023C29.5946 37.6307 31.9905 36.2298 32.0369 36.2298C32.065 36.2298 32.1902 36.3807 32.3149 36.565C32.5976 36.9824 33.2925 37.6998 33.6458 37.9392C33.9345 38.1347 34.3035 38.2917 34.7417 38.405C34.9927 38.469 35.1255 38.4804 35.6731 38.4804C36.2325 38.4802 36.3473 38.4705 36.5976 38.4018C37.2596 38.2195 37.7764 37.8424 37.9954 37.3818C38.0914 37.1828 38.0932 37.1579 38.0932 36.6751V36.1746L37.9756 35.9359C37.6906 35.3572 37.0765 34.9602 35.135 34.1C34.2431 33.7048 33.1508 33.1477 32.7244 32.8705C31.7512 32.2379 31.0767 31.5147 30.6341 30.6295C30.1938 29.7492 30.1281 29.4215 30.127 28.0978C30.1259 27.0616 30.1243 27.0743 30.334 26.4129C30.5243 25.8127 30.9139 25.1423 31.3439 24.6748C32.2022 23.7416 33.4562 23.1418 34.7987 23.0225C34.9705 23.0059 35.2004 22.9994 35.4507 23.0002L35.4508 23ZM23.9021 24.0002H23.9025C26.4604 24.0015 27.9266 24.0104 27.9502 24.0252C27.9945 24.0527 28 24.2759 28 25.7004V27.3438L25.4476 27.3531L22.8953 27.3624V34.6284C22.8953 38.6248 22.8872 41.9183 22.8761 41.9473C22.8581 41.9962 22.6618 42 21.0011 42H19.1461L19.127 41.9248C19.1146 41.8836 19.1056 38.5901 19.1053 34.6059L19.1047 27.3619L16.5524 27.3529L14 27.3436V25.7196C14 24.4317 14.0089 24.0867 14.0431 24.0525C14.0782 24.0162 15.3808 24.0068 20.9934 24.0013C22.0756 24.0002 23.0495 23.9997 23.9021 24.0002L23.9021 24.0002Z" fill="#0288D1"/>
</svg>
